<svg width="375" height="812" viewBox="0 0 375 812" fill="none" xmlns="http://www.w3.org/2000/svg">
<rect width="375" height="812" fill="url(#paint0_linear_2_3)"/>
<path d="M375 576.847C351 496.721 59.0001 474.076 0 576.847V812H375V576.847Z" fill="white"/>
<path d="M375 576.847C351 496.721 59.0001 474.076 0 576.847V812H375V576.847Z" fill="url(#paint1_linear_2_3)"/>
<g filter="url(#filter0_f_2_3)">
<path d="M152 236C152 433.561 338.136 345.153 299.998 267.278C273.18 212.516 178.201 283.981 152 236Z" fill="#1A1A33" fill-opacity="0.3"/>
<path d="M152 236C152 433.561 338.136 345.153 299.998 267.278C273.18 212.516 178.201 283.981 152 236Z" fill="#1A1A33" fill-opacity="0.3"/>
</g>
<path d="M269.197 206.569C279.792 228.203 274.918 250.653 261.223 268.954C247.486 287.312 225.031 301.21 201.244 305.277C177.549 309.328 152.689 303.619 133.677 283.003C115.667 263.473 102.562 230.192 101.13 178.124C109.461 187.337 120.851 191.09 133.519 191.97C148.227 192.991 165.136 190.178 181.748 187.414C182.888 187.224 184.027 187.035 185.163 186.847C203.09 183.882 220.505 181.277 235.359 183.264C249.97 185.219 261.854 191.575 269.197 206.569Z" fill="#FFB200" stroke="#B96300" stroke-width="6"/>
<path d="M205.924 243.5C205.924 247.918 203.37 251.5 200.219 251.5C197.068 251.5 194.514 247.918 194.514 243.5C194.514 239.082 197.068 235.5 200.219 235.5C203.37 235.5 205.924 239.082 205.924 243.5Z" fill="black"/>
<ellipse cx="244.435" cy="227.5" rx="5.70525" ry="8" fill="black"/>
<path d="M238.987 256.862C239.976 256.35 241.165 256.834 240.886 257.934C240.857 258.047 240.823 258.161 240.785 258.277C240.486 259.176 239.892 260.159 239.037 261.17C238.182 262.182 237.082 263.203 235.801 264.174C234.519 265.145 233.081 266.047 231.569 266.83C230.056 267.613 228.499 268.26 226.985 268.735C225.472 269.21 224.032 269.504 222.748 269.599C221.464 269.694 220.361 269.589 219.502 269.29C219.391 269.251 219.284 269.209 219.182 269.164C218.182 268.725 218.543 267.44 219.533 266.928L219.875 266.751C220.675 266.337 221.703 266.7 222.536 266.99C223.128 267.196 223.888 267.269 224.773 267.203C225.658 267.138 226.65 266.935 227.692 266.608C228.735 266.281 229.808 265.835 230.851 265.295C231.893 264.756 232.884 264.134 233.767 263.465C234.65 262.796 235.407 262.093 235.997 261.396C236.586 260.699 236.995 260.021 237.201 259.402C237.491 258.531 237.845 257.453 238.645 257.039L238.987 256.862Z" fill="black"/>
<path d="M217.319 263.969C217.458 263.304 218.14 262.884 218.646 263.345C218.683 263.379 218.72 263.414 218.756 263.45C219.103 263.802 219.389 264.266 219.597 264.816C219.804 265.365 219.929 265.99 219.965 266.653C220.001 267.317 219.947 268.007 219.805 268.684C219.664 269.36 219.438 270.011 219.141 270.597C218.844 271.184 218.482 271.696 218.074 272.103C217.667 272.511 217.222 272.806 216.766 272.972C216.719 272.989 216.672 273.005 216.625 273.019C215.981 273.215 215.529 272.532 215.668 271.868L215.77 271.383C215.853 270.986 216.261 270.748 216.639 270.611C216.882 270.522 217.118 270.365 217.336 270.148C217.553 269.931 217.746 269.658 217.904 269.346C218.062 269.033 218.183 268.687 218.258 268.326C218.333 267.966 218.362 267.598 218.343 267.244C218.324 266.891 218.257 266.558 218.147 266.265C218.036 265.973 217.884 265.726 217.699 265.538C217.41 265.247 217.134 264.851 217.217 264.453L217.319 263.969Z" fill="black"/>
<path d="M217.319 263.969C217.458 263.304 218.14 262.884 218.646 263.345C218.683 263.379 218.72 263.414 218.756 263.45C219.103 263.802 219.389 264.266 219.597 264.816C219.804 265.365 219.929 265.99 219.965 266.653C220.001 267.317 219.947 268.007 219.805 268.684C219.664 269.36 219.438 270.011 219.141 270.597C218.844 271.184 218.482 271.696 218.074 272.103C217.667 272.511 217.222 272.806 216.766 272.972C216.719 272.989 216.672 273.005 216.625 273.019C215.981 273.215 215.529 272.532 215.668 271.868L215.77 271.383C215.853 270.986 216.261 270.748 216.639 270.611C216.882 270.522 217.118 270.365 217.336 270.148C217.553 269.931 217.746 269.658 217.904 269.346C218.062 269.033 218.183 268.687 218.258 268.326C218.333 267.966 218.362 267.598 218.343 267.244C218.324 266.891 218.257 266.558 218.147 266.265C218.036 265.973 217.884 265.726 217.699 265.538C217.41 265.247 217.134 264.851 217.217 264.453L217.319 263.969Z" fill="black"/>
<path d="M244.575 258.497C244.915 258.978 244.815 259.68 244.27 259.878C244.12 259.933 243.965 259.977 243.808 260.01C243.3 260.116 242.765 260.109 242.233 259.988C241.702 259.867 241.183 259.635 240.708 259.305C240.233 258.975 239.81 258.553 239.464 258.064C239.118 257.575 238.855 257.028 238.69 256.455C238.526 255.882 238.463 255.293 238.505 254.722C238.547 254.152 238.694 253.611 238.936 253.13C239.012 252.98 239.096 252.838 239.189 252.702C239.526 252.209 240.194 252.31 240.534 252.79L240.672 252.984C240.936 253.357 240.837 253.888 240.627 254.305C240.498 254.561 240.42 254.849 240.397 255.153C240.375 255.457 240.408 255.77 240.496 256.076C240.584 256.381 240.724 256.673 240.908 256.933C241.093 257.194 241.318 257.418 241.571 257.594C241.824 257.77 242.1 257.894 242.383 257.958C242.667 258.022 242.952 258.026 243.222 257.97C243.661 257.877 244.173 257.93 244.438 258.303L244.575 258.497Z" fill="black"/>
<path d="M244.575 258.497C244.915 258.978 244.815 259.68 244.27 259.878C244.12 259.933 243.965 259.977 243.808 260.01C243.3 260.116 242.765 260.109 242.233 259.988C241.702 259.867 241.183 259.635 240.708 259.305C240.233 258.975 239.81 258.553 239.464 258.064C239.118 257.575 238.855 257.028 238.69 256.455C238.526 255.882 238.463 255.293 238.505 254.722C238.547 254.152 238.694 253.611 238.936 253.13C239.012 252.98 239.096 252.838 239.189 252.702C239.526 252.209 240.194 252.31 240.534 252.79L240.672 252.984C240.936 253.357 240.837 253.888 240.627 254.305C240.498 254.561 240.42 254.849 240.397 255.153C240.375 255.457 240.408 255.77 240.496 256.076C240.584 256.381 240.724 256.673 240.908 256.933C241.093 257.194 241.318 257.418 241.571 257.594C241.824 257.77 242.1 257.894 242.383 257.958C242.667 258.022 242.952 258.026 243.222 257.97C243.661 257.877 244.173 257.93 244.438 258.303L244.575 258.497Z" fill="black"/>
<path d="M98.0001 168.5C101.09 255.75 185.621 246.716 184.53 272.25C181.677 339 301.887 266.5 271.891 205.25C316.946 297.25 98.0001 400.5 98.0001 168.5Z" fill="#875E00" fill-opacity="0.5"/>
<path d="M129.769 232.764C130.149 229.364 127.63 226.264 121.924 226.514C119.547 231.264 119.547 231.264 124.064 235.514L124.064 235.514C128.58 239.764 129.294 237.014 129.769 232.764Z" fill="#875E00" fill-opacity="0.5"/>
<path d="M220.998 193.233C224.088 193.233 214.097 184.473 211.965 186.233C208.926 188.742 201.98 189.483 208.874 193.233C211.86 194.858 218.981 193.233 220.998 193.233Z" fill="#875E00" fill-opacity="0.5"/>
<path d="M271.534 223.64C274.625 223.64 267.821 218.614 265.689 220.374C262.65 222.882 255.705 223.624 262.599 227.374C265.585 228.998 269.517 223.64 271.534 223.64Z" fill="#875E00" fill-opacity="0.5"/>
<path d="M203.466 283.266C205.98 281.375 200.332 280 197.621 280C194.531 280 186.769 287 194.531 287C197.621 287 201.327 284.876 203.466 283.266Z" fill="#875E00" fill-opacity="0.5"/>
<path d="M159.726 290.266C162.239 288.375 144.213 273.75 141.503 273.75C138.412 273.75 143.029 294 150.79 294C153.881 294 157.587 291.876 159.726 290.266Z" fill="#875E00" fill-opacity="0.5"/>
<path d="M124.879 195.948C124.451 195.198 123.907 196.258 123.215 195.948C118.988 194.052 114.709 198.552 121.603 202.302C124.589 203.926 125.917 197.767 124.879 195.948Z" fill="#875E00" fill-opacity="0.5"/>
<path d="M117.538 192.704C117.111 191.954 116.489 193.576 115.874 192.704C115.382 192.006 113.192 195.118 114.669 195.506C115.62 195.756 118.576 194.523 117.538 192.704Z" fill="#875E00" fill-opacity="0.5"/>
<path d="M99.8 398.024C99.5867 395.848 99.032 393.885 98.136 392.136C97.24 390.387 96.0027 389 94.424 387.976C92.8453 386.909 90.8827 386.397 88.536 386.44C86.1467 386.44 84.248 387.101 82.84 388.424C81.432 389.747 80.728 391.347 80.728 393.224C80.728 394.888 81.1973 396.296 82.136 397.448C83.0747 398.557 84.3333 399.56 85.912 400.456C87.5333 401.352 89.3467 402.248 91.352 403.144C92.9733 403.827 94.616 404.595 96.28 405.448C97.944 406.301 99.4587 407.283 100.824 408.392C102.189 409.459 103.277 410.76 104.088 412.296C104.899 413.789 105.304 415.56 105.304 417.608C105.304 419.997 104.685 422.131 103.448 424.008C102.211 425.885 100.44 427.357 98.136 428.424C95.8747 429.491 93.1227 430.024 89.88 430.024C88.0453 430.024 86.104 429.747 84.056 429.192C82.0507 428.637 80.216 427.848 78.552 426.824L78.872 429.512H74.968L74.712 415.432H77.784C78.1253 419.144 79.448 421.96 81.752 423.88C84.0987 425.757 86.8933 426.696 90.136 426.696C91.7573 426.696 93.2293 426.397 94.552 425.8C95.8747 425.203 96.92 424.349 97.688 423.24C98.456 422.131 98.84 420.829 98.84 419.336C98.84 417.587 98.3067 416.115 97.24 414.92C96.216 413.725 94.8933 412.701 93.272 411.848C91.6933 410.995 90.0293 410.184 88.28 409.416C86.5307 408.648 84.824 407.837 83.16 406.984C81.5387 406.131 80.0667 405.149 78.744 404.04C77.4213 402.931 76.376 401.629 75.608 400.136C74.84 398.6 74.456 396.808 74.456 394.76C74.456 393.565 74.6693 392.307 75.096 390.984C75.5227 389.661 76.248 388.403 77.272 387.208C78.296 386.013 79.6827 385.053 81.432 384.328C83.224 383.56 85.464 383.176 88.152 383.176C89.7733 383.176 91.5867 383.411 93.592 383.88C95.64 384.349 97.496 385.181 99.16 386.376L98.904 383.688H102.744V398.024H99.8ZM109.638 441.75V439.65C110.638 439.65 111.338 439.417 111.738 438.95C112.138 438.483 112.371 437.833 112.438 437C112.538 436.167 112.588 435.2 112.588 434.1L112.638 410.95C112.638 410.417 112.654 409.85 112.688 409.25C112.721 408.617 112.771 408 112.838 407.4C112.271 407.433 111.671 407.467 111.038 407.5C110.404 407.5 109.821 407.517 109.288 407.55V404.9C110.788 404.9 111.954 404.833 112.788 404.7C113.654 404.533 114.304 404.35 114.738 404.15C115.204 403.95 115.554 403.733 115.788 403.5H117.588C117.621 403.833 117.654 404.233 117.688 404.7C117.721 405.167 117.754 405.633 117.788 406.1C118.854 405.167 120.038 404.45 121.338 403.95C122.638 403.45 123.938 403.2 125.238 403.2C127.171 403.2 128.938 403.717 130.538 404.75C132.171 405.75 133.471 407.183 134.438 409.05C135.438 410.917 135.938 413.133 135.938 415.7C135.938 418.467 135.371 420.917 134.238 423.05C133.104 425.183 131.571 426.85 129.638 428.05C127.738 429.217 125.621 429.8 123.288 429.8C122.221 429.8 121.238 429.667 120.338 429.4C119.438 429.167 118.588 428.833 117.788 428.4V435.55C117.788 436.15 117.771 436.75 117.738 437.35C117.738 437.983 117.704 438.617 117.638 439.25C118.171 439.217 118.704 439.183 119.238 439.15C119.804 439.15 120.321 439.133 120.787 439.1V441.75H109.638ZM122.938 427.2C124.538 427.2 125.854 426.733 126.888 425.8C127.954 424.833 128.738 423.55 129.238 421.95C129.771 420.317 130.038 418.483 130.038 416.45C130.038 414.75 129.804 413.133 129.338 411.6C128.871 410.033 128.121 408.767 127.088 407.8C126.088 406.8 124.771 406.317 123.138 406.35C122.104 406.35 121.121 406.6 120.188 407.1C119.254 407.6 118.471 408.217 117.838 408.95C117.838 409.383 117.838 409.85 117.838 410.35C117.871 410.85 117.888 411.483 117.888 412.25C117.888 412.983 117.888 413.933 117.888 415.1C117.888 416.233 117.871 417.667 117.838 419.4C117.838 421.1 117.838 423.167 117.838 425.6C118.504 426.1 119.271 426.5 120.138 426.8C121.038 427.1 121.971 427.233 122.938 427.2ZM150.47 429.8C148.604 429.8 147.054 429.45 145.82 428.75C144.62 428.05 143.72 426.9 143.12 425.3C142.52 423.667 142.22 421.517 142.22 418.85V411C142.22 410.433 142.22 409.85 142.22 409.25C142.254 408.617 142.32 408 142.42 407.4C141.854 407.433 141.254 407.467 140.62 407.5C139.987 407.5 139.42 407.517 138.92 407.55V404.9H140.12C141.787 404.9 143.037 404.75 143.87 404.45C144.704 404.15 145.287 403.833 145.62 403.5H147.52V418.75C147.52 421.383 147.887 423.35 148.62 424.65C149.354 425.95 150.587 426.583 152.32 426.55C153.454 426.55 154.537 426.217 155.57 425.55C156.637 424.883 157.504 424.1 158.17 423.2V411.35C158.17 410.617 158.187 409.933 158.22 409.3C158.254 408.633 158.32 408 158.42 407.4C157.82 407.433 157.204 407.467 156.57 407.5C155.937 407.5 155.354 407.517 154.82 407.55V404.9H156.27C157.737 404.9 158.887 404.75 159.72 404.45C160.554 404.15 161.154 403.833 161.52 403.5H163.42L163.37 421.9C163.37 422.433 163.354 423.167 163.32 424.1C163.287 425 163.237 425.8 163.17 426.5C163.737 426.467 164.32 426.433 164.92 426.4C165.554 426.367 166.137 426.35 166.67 426.35V429H158.72C158.654 428.467 158.587 427.967 158.52 427.5C158.487 427.033 158.437 426.583 158.37 426.15C157.337 427.117 156.137 427.967 154.77 428.7C153.404 429.433 151.97 429.8 150.47 429.8ZM180.496 429.8C178.463 429.8 176.646 429.3 175.046 428.3C173.479 427.267 172.229 425.8 171.296 423.9C170.396 422 169.946 419.767 169.946 417.2C169.946 414.467 170.479 412.05 171.546 409.95C172.613 407.85 174.113 406.2 176.046 405C177.979 403.8 180.179 403.2 182.646 403.2C183.679 403.2 184.663 403.333 185.596 403.6C186.563 403.833 187.363 404.117 187.996 404.45V398.75C187.996 398.25 188.013 397.7 188.046 397.1C188.079 396.467 188.129 395.817 188.196 395.15C187.596 395.183 186.979 395.217 186.346 395.25C185.713 395.283 185.146 395.3 184.646 395.3V392.65C186.146 392.65 187.329 392.583 188.196 392.45C189.096 392.283 189.779 392.1 190.246 391.9C190.746 391.7 191.113 391.483 191.346 391.25H193.196V422.8C193.196 423.3 193.179 423.867 193.146 424.5C193.113 425.133 193.063 425.8 192.996 426.5C193.596 426.467 194.196 426.433 194.796 426.4C195.396 426.367 195.946 426.35 196.446 426.35V429H188.496C188.429 428.533 188.363 428.1 188.296 427.7C188.263 427.3 188.229 426.9 188.196 426.5C187.196 427.567 186.046 428.383 184.746 428.95C183.446 429.517 182.029 429.8 180.496 429.8ZM182.546 426.65C183.579 426.65 184.579 426.367 185.546 425.8C186.546 425.233 187.363 424.517 187.996 423.65C187.996 423.217 187.996 422.767 187.996 422.3C187.996 421.833 187.996 421.333 187.996 420.8V407.2C187.363 406.733 186.613 406.383 185.746 406.15C184.913 405.883 184.046 405.75 183.146 405.75C181.513 405.75 180.129 406.233 178.996 407.2C177.896 408.133 177.079 409.417 176.546 411.05C176.013 412.683 175.763 414.55 175.796 416.65C175.863 418.45 176.146 420.117 176.646 421.65C177.146 423.183 177.879 424.4 178.846 425.3C179.846 426.2 181.079 426.65 182.546 426.65ZM201.43 398.75C201.43 398.183 201.43 397.617 201.43 397.05C201.463 396.45 201.513 395.817 201.58 395.15C200.98 395.183 200.363 395.217 199.73 395.25C199.13 395.25 198.563 395.267 198.03 395.3V392.65C199.53 392.65 200.73 392.583 201.63 392.45C202.53 392.283 203.213 392.1 203.68 391.9C204.18 391.7 204.547 391.483 204.78 391.25H206.63V406.05C207.63 405.117 208.747 404.417 209.98 403.95C211.247 403.45 212.563 403.2 213.93 403.2C215.997 403.2 217.847 403.717 219.48 404.75C221.147 405.783 222.447 407.25 223.38 409.15C224.347 411.05 224.83 413.3 224.83 415.9C224.83 418.667 224.247 421.1 223.08 423.2C221.947 425.3 220.43 426.933 218.53 428.1C216.63 429.233 214.497 429.8 212.13 429.8C211.063 429.8 209.847 429.6 208.48 429.2C207.147 428.8 205.93 427.983 204.83 426.75L203.53 429H201.33L201.43 398.75ZM206.63 421.25C206.63 422.817 206.88 424.033 207.38 424.9C207.88 425.733 208.513 426.333 209.28 426.7C210.08 427.033 210.913 427.2 211.78 427.2C213.347 427.233 214.663 426.8 215.73 425.9C216.797 425 217.597 423.783 218.13 422.25C218.697 420.683 218.98 418.917 218.98 416.95C218.98 414.95 218.73 413.15 218.23 411.55C217.73 409.95 216.963 408.683 215.93 407.75C214.897 406.783 213.597 406.317 212.03 406.35C210.997 406.35 209.997 406.583 209.03 407.05C208.097 407.517 207.297 408.15 206.63 408.95V421.25ZM243.685 429C243.618 428.467 243.568 428 243.535 427.6C243.502 427.2 243.452 426.783 243.385 426.35C242.252 427.483 241.035 428.35 239.735 428.95C238.435 429.517 237.085 429.8 235.685 429.8C233.285 429.8 231.468 429.217 230.235 428.05C229.035 426.85 228.435 425.367 228.435 423.6C228.435 422.067 228.885 420.733 229.785 419.6C230.685 418.467 231.868 417.55 233.335 416.85C234.802 416.117 236.402 415.583 238.135 415.25C239.868 414.883 241.568 414.7 243.235 414.7V411.75C243.235 410.683 243.135 409.7 242.935 408.8C242.735 407.867 242.318 407.117 241.685 406.55C241.085 405.95 240.135 405.65 238.835 405.65C237.968 405.617 237.102 405.783 236.235 406.15C235.368 406.483 234.702 407.05 234.235 407.85C234.502 408.117 234.668 408.433 234.735 408.8C234.835 409.133 234.885 409.45 234.885 409.75C234.885 410.217 234.685 410.75 234.285 411.35C233.885 411.917 233.202 412.183 232.235 412.15C231.435 412.15 230.818 411.883 230.385 411.35C229.985 410.783 229.785 410.133 229.785 409.4C229.785 408.2 230.218 407.133 231.085 406.2C231.985 405.267 233.202 404.533 234.735 404C236.268 403.467 237.985 403.2 239.885 403.2C242.752 403.2 244.885 403.95 246.285 405.45C247.718 406.95 248.435 409.317 248.435 412.55C248.435 413.75 248.435 414.9 248.435 416C248.435 417.1 248.418 418.2 248.385 419.3C248.385 420.4 248.385 421.567 248.385 422.8C248.385 423.3 248.368 423.867 248.335 424.5C248.302 425.133 248.252 425.8 248.185 426.5C248.752 426.467 249.335 426.433 249.935 426.4C250.535 426.367 251.102 426.35 251.635 426.35V429H243.685ZM243.235 417C242.168 417.067 241.068 417.217 239.935 417.45C238.835 417.683 237.835 418.033 236.935 418.5C236.035 418.967 235.302 419.567 234.735 420.3C234.202 421.033 233.935 421.917 233.935 422.95C234.002 424.083 234.368 424.917 235.035 425.45C235.735 425.983 236.552 426.25 237.485 426.25C238.652 426.25 239.685 426.033 240.585 425.6C241.485 425.133 242.368 424.5 243.235 423.7C243.202 423.333 243.185 422.967 243.185 422.6C243.185 422.2 243.185 421.783 243.185 421.35C243.185 421.05 243.185 420.5 243.185 419.7C243.218 418.867 243.235 417.967 243.235 417ZM265.513 429.8C263.946 429.8 262.496 429.583 261.163 429.15C259.83 428.75 258.763 428.267 257.963 427.7L258.113 429.35H255.463L255.213 420.75H257.313C257.38 421.983 257.763 423.1 258.463 424.1C259.163 425.1 260.063 425.883 261.163 426.45C262.296 427.017 263.513 427.3 264.813 427.3C265.58 427.3 266.33 427.183 267.063 426.95C267.796 426.683 268.413 426.3 268.913 425.8C269.413 425.267 269.663 424.617 269.663 423.85C269.663 423.017 269.396 422.333 268.863 421.8C268.363 421.233 267.663 420.733 266.763 420.3C265.896 419.867 264.896 419.433 263.763 419C262.763 418.6 261.746 418.183 260.713 417.75C259.713 417.317 258.78 416.8 257.913 416.2C257.046 415.6 256.363 414.867 255.863 414C255.363 413.1 255.113 412 255.113 410.7C255.113 409.933 255.263 409.117 255.563 408.25C255.863 407.35 256.346 406.533 257.013 405.8C257.68 405.033 258.58 404.417 259.713 403.95C260.846 403.45 262.246 403.2 263.913 403.2C264.813 403.2 265.813 403.35 266.913 403.65C268.046 403.95 269.096 404.467 270.063 405.2L270.013 403.45H272.663V412.25H270.513C270.413 411.083 270.096 410 269.563 409C269.063 408 268.346 407.183 267.413 406.55C266.48 405.917 265.346 405.6 264.013 405.6C262.713 405.6 261.646 405.933 260.813 406.6C260.013 407.233 259.613 408.033 259.613 409C259.613 409.967 259.913 410.75 260.513 411.35C261.146 411.95 261.963 412.467 262.963 412.9C263.963 413.333 265.046 413.767 266.213 414.2C267.613 414.767 268.93 415.383 270.163 416.05C271.396 416.717 272.396 417.55 273.163 418.55C273.93 419.55 274.313 420.817 274.313 422.35C274.313 424.017 273.88 425.417 273.013 426.55C272.18 427.65 271.096 428.467 269.763 429C268.43 429.533 267.013 429.8 265.513 429.8ZM290.349 429.8C288.016 429.8 285.916 429.267 284.049 428.2C282.216 427.1 280.766 425.567 279.699 423.6C278.633 421.6 278.099 419.25 278.099 416.55C278.099 414.217 278.616 412.033 279.649 410C280.716 407.967 282.199 406.333 284.099 405.1C285.999 403.833 288.199 403.2 290.699 403.2C292.099 403.2 293.416 403.417 294.649 403.85C295.916 404.283 297.033 404.967 297.999 405.9C298.999 406.8 299.783 407.983 300.349 409.45C300.916 410.883 301.199 412.633 301.199 414.7L283.999 415C283.999 417.267 284.249 419.283 284.749 421.05C285.283 422.817 286.133 424.183 287.299 425.15C288.466 426.117 289.983 426.6 291.849 426.6C292.749 426.6 293.699 426.45 294.699 426.15C295.733 425.817 296.699 425.35 297.599 424.75C298.533 424.15 299.316 423.433 299.949 422.6L301.499 423.95C300.499 425.45 299.349 426.633 298.049 427.5C296.749 428.333 295.416 428.917 294.049 429.25C292.716 429.617 291.483 429.8 290.349 429.8ZM284.199 412.4H295.749C295.749 411.133 295.566 410 295.199 409C294.866 407.967 294.333 407.15 293.599 406.55C292.866 405.95 291.933 405.65 290.799 405.65C289.033 405.65 287.583 406.217 286.449 407.35C285.316 408.45 284.566 410.133 284.199 412.4Z" fill="white"/>
<defs>
<filter id="filter0_f_2_3" x="142" y="226" width="173.149" height="140" filterUnits="userSpaceOnUse" color-interpolation-filters="sRGB">
<feFlood flood-opacity="0" result="BackgroundImageFix"/>
<feBlend mode="normal" in="SourceGraphic" in2="BackgroundImageFix" result="shape"/>
<feGaussianBlur stdDeviation="5" result="effect1_foregroundBlur_2_3"/>
</filter>
<linearGradient id="paint0_linear_2_3" x1="-7.99819e-07" y1="197" x2="136" y2="791" gradientUnits="userSpaceOnUse">
<stop stop-color="#DBFFCC"/>
<stop offset="0.125" stop-color="#DBFFCC"/>
<stop offset="0.1251" stop-color="#5FCC00"/>
<stop offset="1" stop-color="#006603"/>
</linearGradient>
<linearGradient id="paint1_linear_2_3" x1="187.5" y1="508" x2="187.5" y2="812" gradientUnits="userSpaceOnUse">
<stop offset="0.0364583" stop-color="#E5F8C4"/>
<stop offset="1" stop-color="#D5FBA1"/>
</linearGradient>
</defs>
</svg>
